<svg xmlns="http://www.w3.org/2000/svg" xmlns:svg="http://www.w3.org/2000/svg" xmlns:xlink="http://www.w3.org/1999/xlink" id="svg6517" width="96" height="96" version="1.1"><defs id="defs6519"><linearGradient id="linearGradient6461" x1="0" x2="144" y1="970.295" y2="970.295" gradientTransform="matrix(0,-0.66666669,0.6660448,0,-866.25992,731.29077)" gradientUnits="userSpaceOnUse" xlink:href="#Background"/><linearGradient id="Background"><stop id="stop4178" offset="0" style="stop-color:#b8b8b8;stop-opacity:1"/><stop id="stop4180" offset="1" style="stop-color:#c9c9c9;stop-opacity:1"/></linearGradient><filter style="color-interpolation-filters:sRGB" id="filter1121"><feFlood id="feFlood1123" flood-color="#000" flood-opacity=".6" result="flood"/><feComposite id="feComposite1125" in="flood" in2="SourceGraphic" operator="out" result="composite1"/><feGaussianBlur id="feGaussianBlur1127" in="composite1" result="blur" stdDeviation="1"/><feOffset id="feOffset1129" dx="0" dy="2" result="offset"/><feComposite id="feComposite1131" in="offset" in2="SourceGraphic" operator="atop" result="composite2"/></filter><filter style="color-interpolation-filters:sRGB" id="filter950"><feFlood id="feFlood952" flood-color="#000" flood-opacity=".25" result="flood"/><feComposite id="feComposite954" in="flood" in2="SourceGraphic" operator="in" result="composite1"/><feGaussianBlur id="feGaussianBlur956" in="composite1" result="blur" stdDeviation="1"/><feOffset id="feOffset958" dx="0" dy="1" result="offset"/><feComposite id="feComposite960" in="SourceGraphic" in2="offset" operator="over" result="composite2"/></filter><clipPath id="clipPath873" clipPathUnits="userSpaceOnUse"><g id="g875" transform="matrix(0,-0.66666667,0.66604479,0,-258.25992,677.00001)" style="fill:#f0f;fill-opacity:1;stroke:none;display:inline"><path style="fill:#f0f;fill-opacity:1;stroke:none;display:inline" id="path877" d="m 46.702703,898.22775 50.594594,0 C 138.16216,898.22775 144,904.06497 144,944.92583 l 0,50.73846 c 0,40.86071 -5.83784,46.69791 -46.702703,46.69791 l -50.594594,0 C 5.8378378,1042.3622 0,1036.525 0,995.66429 L 0,944.92583 C 0,904.06497 5.8378378,898.22775 46.702703,898.22775 Z"/></g></clipPath><filter id="filter891"><feGaussianBlur id="feGaussianBlur893" stdDeviation=".72"/></filter></defs><metadata id="metadata6522"/><g id="layer1" transform="translate(268,-635.29076)" style="display:inline"><path style="fill:url(#linearGradient6461);fill-opacity:1;stroke:none;display:inline;filter:url(#filter1121)" id="path6455" d="m -268,700.15563 0,-33.72973 c 0,-27.24324 3.88785,-31.13513 31.10302,-31.13513 l 33.79408,0 c 27.21507,0 31.1029,3.89189 31.1029,31.13513 l 0,33.72973 c 0,27.24325 -3.88783,31.13514 -31.1029,31.13514 l -33.79408,0 C -264.11215,731.29077 -268,727.39888 -268,700.15563 Z"/></g><g id="layer2" style="display:none"><g style="display:inline" id="g4394" clip-path="none" transform="translate(-340.00001,-581)"><g id="g855"><g id="g870" clip-path="url(#clipPath873)" style="opacity:.6;filter:url(#filter891)"><path id="path844" d="m 264,552.36218 a 12,12 0 1 1 -24,0 A 12,12 0 1 1 264,552.36218 Z" transform="matrix(1.4999992,0,0,1.4999992,-29.999795,-237.54282)" style="color:#000;fill:#000;fill-opacity:1;fill-rule:nonzero;stroke:none;stroke-width:4;marker:none;visibility:visible;display:inline;overflow:visible;enable-background:accumulate"/></g><g id="g862"><path style="color:#000;fill:#f5f5f5;fill-opacity:1;fill-rule:nonzero;stroke:none;stroke-width:4;marker:none;visibility:visible;display:inline;overflow:visible;enable-background:accumulate" id="path4398" d="m 264,552.36218 a 12,12 0 1 1 -24,0 A 12,12 0 1 1 264,552.36218 Z" transform="matrix(1.4999992,0,0,1.4999992,-29.999795,-238.54282)"/><path id="path4400" d="m 264,552.36218 a 12,12 0 1 1 -24,0 A 12,12 0 1 1 264,552.36218 Z" transform="matrix(1.25,0,0,1.25,33,-100.45273)" style="color:#000;fill:#dd4814;fill-opacity:1;fill-rule:nonzero;stroke:none;stroke-width:4;marker:none;visibility:visible;display:inline;overflow:visible;enable-background:accumulate"/><path style="color:#000;fill:#f5f5f5;fill-opacity:1;fill-rule:nonzero;stroke:none;stroke-width:3;marker:none;visibility:visible;display:inline;overflow:visible;enable-background:accumulate" id="path4459" d="m 669.8173,595.77657 c -0.39132,0.22593 -3.62645,-1.90343 -4.07583,-1.95066 -0.44938,-0.0472 -4.05653,1.36297 -4.39232,1.06062 -0.3358,-0.30235 0.68963,-4.03715 0.59569,-4.47913 -0.0939,-0.44198 -2.5498,-3.43681 -2.36602,-3.8496 0.18379,-0.41279 4.05267,-0.59166 4.44398,-0.81759 0.39132,-0.22593 2.48067,-3.48704 2.93005,-3.4398 0.44938,0.0472 1.81505,3.67147 2.15084,3.97382 0.3358,0.30236 4.08294,1.2817 4.17689,1.72369 0.0939,0.44198 -2.9309,2.86076 -3.11469,3.27355 C 669.9821,591.68426 670.20862,595.55064 669.8173,595.77657 Z" transform="matrix(1.511423,-0.16366377,0.16366377,1.511423,-755.37346,-191.93651)"/></g></g></g></g></svg>